<svg height="464pt" viewBox="0 0 464 500" width="464pt" xmlns="http://www.w3.org/2000/svg"><path d="m464 232c0 128.128906-103.871094 232-232 232s-232-103.871094-232-232 103.871094-232 232-232 232 103.871094 232 232zm0 0" fill="#ccdce5"/><path d="m424 208c-.023438-12.269531-7.074219-23.4375-18.144531-28.726562 4.46875-11.285157 2.085937-24.128907-6.132813-33.0625-8.214844-8.929688-20.820312-12.371094-32.433594-8.859376-2.910156-13.5-14.175781-23.59375-27.914062-25.007812 6.746094-10.441406 6.683594-23.882812-.15625-34.261719-6.84375-10.382812-19.171875-15.738281-31.425781-13.65625-7.574219-13.910156-24.304688-20.027343-39.066407-14.28125-5.273437-11.082031-16.453124-18.144531-28.726562-18.144531s-23.453125 7.0625-28.726562 18.144531c-14.761719-5.746093-31.492188.371094-39.066407 14.28125-12.152343-1.734375-24.214843 3.703125-30.972656 13.953125s-6.992187 23.476563-.609375 33.964844c-13.738281 1.414062-25.003906 11.507812-27.914062 25.007812-2.824219-.855468-5.757813-1.308593-8.710938-1.351562-10.523438-.070312-20.398438 5.074219-26.378906 13.738281-5.976563 8.660157-7.277344 19.71875-3.476563 29.535157-8.378906 4-14.597656 11.453124-17.03125 20.414062-2.433593 8.960938-.839843 18.535156 4.367188 26.222656-12.226563 4.203125-20.695313 15.382813-21.425781 28.289063-.730469 12.90625 6.417968 24.972656 18.089843 30.527343-4.46875 11.285157-2.085937 24.128907 6.132813 33.0625 8.214844 8.929688 20.820312 12.371094 32.433594 8.859376 2.910156 13.5 14.175781 23.59375 27.914062 25.007812-6.746094 10.441406-6.683594 23.882812.15625 34.261719 6.84375 10.382812 19.171875 15.738281 31.425781 13.65625 7.574219 13.910156 24.304688 20.027343 39.066407 14.28125 5.273437 11.082031 16.453124 18.144531 28.726562 18.144531s23.453125-7.0625 28.726562-18.144531c14.761719 5.746093 31.492188-.371094 39.066407-14.28125 12.152343 1.734375 24.214843-3.703125 30.972656-13.953125s6.992187-23.476563.609375-33.964844c13.738281-1.414062 25.003906-11.507812 27.914062-25.007812 2.824219.855468 5.757813 1.308593 8.710938 1.351562 10.523438.070312 20.398438-5.074219 26.378906-13.738281 5.976563-8.660157 7.277344-19.71875 3.476563-29.535157 8.378906-4 14.597656-11.453124 17.03125-20.414062 2.433593-8.960938.839843-18.535156-4.367188-26.222656 12.832031-4.441406 21.449219-16.511719 21.480469-30.089844zm0 0" fill="#fde700"/><path d="m144 208h-16c0-13.253906-10.746094-24-24-24v-16c22.082031.027344 39.972656 17.917969 40 40zm0 0" fill="#7ca540"/><path d="m175.839844 143.839844-3.136719-15.679688c13-2.601562 21.429687-15.25 18.824219-28.25l15.671875-3.109375c4.289062 21.640625-9.734375 42.671875-31.359375 47.039063zm0 0" fill="#7ca540"/><path d="m360 216c-22.082031-.027344-39.972656-17.917969-40-40h16c0 13.253906 10.746094 24 24 24zm0 0" fill="#e87425"/><path d="m208 184h16v16h-16zm0 0" fill="#e87425"/><path d="m168 256h16v16h-16zm0 0" fill="#7ca540"/><path d="m272 120h16v16h-16zm0 0" fill="#7ca540"/><path d="m232 72h16v16h-16zm0 0" fill="#e87425"/><path d="m208.945312 367.199219-15.6875-3.136719c2.585938-13-5.855468-25.636719-18.859374-28.222656l3.136718-15.679688c21.660156 4.320313 35.722656 25.378906 31.410156 47.039063zm0 0" fill="#7ca540"/><path d="m354.34375 293.65625c-9.371094-9.375-24.570312-9.375-33.945312 0l-11.308594-11.3125c15.628906-15.59375 40.933594-15.59375 56.566406 0zm0 0" fill="#7ca540"/><path d="m112.96875 298.910156c-15.585938-15.632812-15.585938-40.929687 0-56.566406l11.3125 11.3125c-9.355469 9.382812-9.355469 24.5625 0 33.945312zm0 0" fill="#e87425"/><path d="m256 288h16v16h-16zm0 0" fill="#e87425"/><path d="m256 360h16v16h-16zm0 0" fill="#7ca540"/><path d="m232 264c-4.417969 0-8-3.582031-8-8v-24c0-4.417969 3.582031-8 8-8h24c4.417969 0 8 3.582031 8 8s-3.582031 8-8 8h-16v16c0 4.417969-3.582031 8-8 8zm0 0" fill="#88bf40"/></svg>